<?xml version="1.0" encoding="utf-8"?>
<!-- Generator: Adobe Illustrator 16.0.0, SVG Export Plug-In . SVG Version: 6.00 Build 0)  -->
<!DOCTYPE svg PUBLIC "-//W3C//DTD SVG 1.1//EN" "http://www.w3.org/Graphics/SVG/1.1/DTD/svg11.dtd">
<svg version="1.1" id="Ebene_1" xmlns="http://www.w3.org/2000/svg" xmlns:xlink="http://www.w3.org/1999/xlink" x="0px" y="0px"
	 width="1920px" height="1080px" viewBox="0 0 1920 1080" enable-background="new 0 0 1920 1080" xml:space="preserve">
<g>
	<path fill="#42A8CA" d="M428.443,297.051c-31.764,0-47.636,17.845-47.636,53.517v141.842c0,35.684,15.873,53.534,47.636,53.534
		c32.113,0,48.173-17.851,48.173-53.534V350.567C476.617,314.896,460.557,297.051,428.443,297.051z"/>
	<path fill="#42A8CA" d="M1562.069,41.858H358.914c-148.585,0-269.473,120.87-269.473,269.456v226.533
		c0,148.579,120.888,269.468,269.473,269.468h203.812l3.797,233.83l313.44-233.83h682.106
		c148.579,0,269.474-120.889,269.474-269.468V311.314C1831.543,162.729,1710.648,41.858,1562.069,41.858z M560.123,492.409
		c0,43.536-11.953,75.469-35.864,95.81c-23.9,20.342-55.85,30.51-95.815,30.51c-39.609,0-71.379-10.168-95.273-30.51
		c-23.912-20.341-35.87-52.274-35.87-95.81V350.567c0-43.535,11.958-75.462,35.87-95.81c23.894-20.335,55.664-30.515,95.273-30.515
		c39.965,0,71.916,10.179,95.815,30.515c23.912,20.348,35.864,52.274,35.864,95.81V492.409z M876.457,589.829
		c0,8.214-4.107,14.537-12.303,19.006c-8.214,4.462-18.032,6.685-29.442,6.685c-22.833,0-38.367-7.508-46.569-22.5L686.448,407.841
		v181.988c0,8.214-4.112,14.537-12.32,19.006c-8.208,4.462-18.02,6.685-29.43,6.685c-11.439,0-21.246-2.223-29.447-6.685
		c-8.214-4.469-12.314-10.792-12.314-19.006V249.951c0-8.208,4.101-14.555,12.314-19.017c8.202-4.451,18.008-6.691,29.447-6.691
		c16.054,0,27.908,2.339,35.59,6.965c7.677,4.638,16.322,16.241,25.959,34.797l86.721,165.386V249.415
		c0-8.208,4.089-14.461,12.303-18.743c8.208-4.282,18.008-6.429,29.442-6.429c11.41,0,21.228,2.146,29.442,6.429
		c8.196,4.281,12.303,10.535,12.303,18.743V589.829z M1146.775,604.815c-4.299,7.14-10.173,10.704-17.681,10.704H959.964
		c-9.999,0-18.568-2.223-25.697-6.685c-7.14-4.469-10.71-10.792-10.71-19.006V249.415c0-8.208,4.113-14.461,12.314-18.743
		c8.202-4.282,18.02-6.429,29.441-6.429c11.422,0,21.223,2.146,29.431,6.429c8.22,4.281,12.32,10.535,12.32,18.743v293.309h122.031
		c7.508,0,13.382,3.57,17.681,10.704c4.271,7.141,6.418,15.704,6.418,25.697C1153.193,589.117,1151.047,597.681,1146.775,604.815z
		 M1259.707,589.829c0,8.214-4.107,14.537-12.326,19.006c-8.19,4.462-18.008,6.685-29.43,6.685s-21.234-2.223-29.431-6.685
		c-8.231-4.469-12.32-10.792-12.32-19.006V249.415c0-8.208,4.089-14.461,12.32-18.743c8.196-4.282,18.009-6.429,29.431-6.429
		s21.239,2.146,29.43,6.429c8.219,4.281,12.326,10.535,12.326,18.743V589.829z M1630.1,589.829c0,8.214-4.112,14.537-12.309,19.006
		c-8.207,4.462-18.031,6.685-29.441,6.685c-11.428,0-21.229-2.223-29.453-6.685c-8.197-4.469-12.297-10.792-12.297-19.006V389.104
		l-51.395,87.783c-6.066,10.349-15.342,15.522-27.819,15.522c-12.134,0-20.878-5.174-26.233-15.522l-50.862-93.138v206.081
		c0,8.214-4.095,14.537-12.297,19.006c-8.202,4.462-18.026,6.685-29.448,6.685s-21.233-2.223-29.43-6.685
		c-8.219-4.469-12.326-10.792-12.326-19.006V266.005c0-14.269,4.025-24.798,12.047-31.583c8.038-6.773,17.932-10.179,29.709-10.179
		c16.078,0,28.287,2.427,36.676,7.228c8.377,4.83,17.746,16.328,28.082,34.534l55.139,96.335l55.139-96.335
		c10.349-18.206,19.711-29.704,28.111-34.534c8.371-4.801,20.598-7.228,36.658-7.228c11.766,0,21.678,3.406,29.728,10.179
		c8.003,6.785,12.022,17.314,12.022,31.583V589.829z"/>
</g>
</svg>
